<svg width="106" height="11" viewBox="0 0 106 11" fill="none" xmlns="http://www.w3.org/2000/svg">
<path d="M52.7827 10.3155H49.1584V0.597056H52.7827V10.3155ZM49.5123 9.96054H52.4287V0.952056H49.5123V9.96054ZM57.8255 10.3155H54.2742V0.597056H61.694C62.7572 0.51072 63.8155 0.810056 64.6769 1.44054C65.0479 1.78084 65.3353 2.20251 65.5172 2.6726C65.6984 3.14269 65.7692 3.64849 65.7239 4.15061C65.777 5.01823 65.5016 5.87392 64.953 6.54686C64.3039 7.29378 63.2237 7.6786 61.7428 7.69209C61.3698 7.70203 58.5744 7.69209 57.8276 7.69209L57.8255 10.3155ZM54.626 9.96054H57.4716V7.33354H57.6493C57.6854 7.33354 61.3146 7.3449 61.7343 7.33354C63.114 7.32147 64.1057 6.97853 64.6854 6.309C65.1739 5.70018 65.4159 4.92962 65.365 4.14989C65.4082 3.70004 65.348 3.24614 65.1887 2.82347C65.0287 2.40074 64.7746 2.02061 64.4448 1.71247C63.6463 1.13744 62.6687 0.867495 61.689 0.951346H54.6281L54.626 9.96054ZM60.9422 5.50884H57.4475V2.86337H60.9656C61.2148 2.8288 61.4689 2.85798 61.7039 2.94822C61.9396 3.03846 62.1477 3.18685 62.3105 3.37955C62.4585 3.62592 62.5279 3.91133 62.5102 4.19817C62.5236 4.4645 62.4663 4.72961 62.3438 4.9664C62.176 5.16938 61.9587 5.32565 61.7131 5.42016C61.4682 5.51466 61.2027 5.54419 60.9422 5.50599V5.50884ZM57.8014 5.15384H60.9422C61.5227 5.15384 61.8823 5.03243 62.0416 4.78251C62.1293 4.60089 62.169 4.39967 62.1569 4.19817C62.1725 3.98667 62.1265 3.77516 62.0253 3.589L62.021 3.5826C61.8526 3.3341 61.5177 3.21837 60.9656 3.21837H57.8014V5.15384ZM72.1831 10.459C69.0048 10.459 67.1077 9.6673 66.385 8.03928C66.2668 7.72482 66.1861 7.39729 66.1458 7.06373L66.1146 6.85926H69.896L69.9208 7.00836C69.9498 7.1598 70.0142 7.30222 70.1077 7.42441C70.257 7.60546 70.7554 7.90935 72.409 7.90935C74.3966 7.90935 74.3966 7.55932 74.3966 7.37117C74.3966 7.0538 74.1666 6.94517 72.5456 6.77192L72.2376 6.74282C71.6275 6.68531 70.8559 6.61218 70.5034 6.58165C67.5303 6.31185 66.2031 5.38529 66.2031 3.57834C66.2031 1.68051 68.4619 0.454346 71.958 0.454346C74.81 0.454346 76.6476 1.20837 77.4185 2.69724C77.6011 3.04357 77.7243 3.4186 77.7816 3.80626L77.8064 4.00577H74.0208L74.0052 3.84531C73.9903 3.71992 73.9372 3.60227 73.8523 3.50876C73.7107 3.31848 73.2633 3.00396 71.8745 3.00396C70.1693 3.00396 69.9342 3.22264 69.9342 3.45836C69.9342 3.77289 70.4729 3.88436 72.1994 4.06967C72.9193 4.1286 74.0767 4.24788 74.4731 4.29616C76.9655 4.56738 78.0775 5.47121 78.0775 7.22775C78.0782 8.701 77.0554 10.459 72.1831 10.459ZM66.528 7.21426C66.5634 7.44841 66.6243 7.67796 66.7099 7.8987C67.3682 9.38189 69.1591 10.104 72.1831 10.104C74.7116 10.104 77.7264 9.60696 77.7264 7.22775C77.7264 5.67072 76.7425 4.89966 74.4356 4.64903C74.0392 4.60075 72.8889 4.48218 72.1704 4.42254C70.3299 4.22232 69.5817 4.11582 69.5817 3.45836C69.5817 2.77818 70.388 2.64896 71.8759 2.64896C73.0517 2.64896 73.8112 2.86195 74.1333 3.2915C74.2211 3.39737 74.2876 3.51942 74.3287 3.65077H77.3966C77.335 3.37621 77.2373 3.11095 77.1063 2.86195C76.3985 1.49946 74.6692 0.809346 71.9594 0.809346C68.6785 0.809346 66.5584 1.89635 66.5584 3.57834C66.5584 5.18294 67.7484 5.97531 70.5359 6.22807C70.8899 6.2586 71.6607 6.33173 72.2723 6.38995L72.5824 6.41906C74.088 6.5781 74.752 6.6775 74.752 7.37117C74.752 8.11809 73.8933 8.26435 72.4104 8.26435C71.0385 8.26435 70.1721 8.05773 69.8373 7.6509C69.7339 7.52119 69.6561 7.37301 69.6079 7.21426H66.528ZM84.8023 10.4469C81.1072 10.4469 79.0686 8.94807 79.0686 6.22593V0.597056H82.6447V6.22593C82.6447 7.15958 83.4778 7.69492 84.9297 7.69492C86.3171 7.69492 87.1786 7.13616 87.1786 6.23801V0.597056H90.7179V6.52414C90.7214 9.01695 88.5631 10.4469 84.8001 10.4469H84.8023ZM79.4225 0.952056V6.22593C79.4225 9.58991 82.7905 10.0919 84.8023 10.0919C86.882 10.0919 90.3696 9.62826 90.3696 6.52414V0.952056H87.5382V6.23801C87.5382 7.33851 86.516 8.04992 84.9353 8.04992C83.2832 8.04992 82.2964 7.36832 82.2964 6.22593V0.952056H79.4225ZM105.716 10.3155H102.341V5.92774L100.427 10.3155H97.4829L95.5887 5.93626V10.3155H92.2016V0.597056H96.6569L98.9716 5.95543L101.398 0.597056H105.72L105.716 10.3155ZM102.695 9.96054H105.362V0.952056H101.623L98.9603 6.83015L96.4219 0.952056H92.5527V9.96054H95.2319V4.22799L97.7095 9.96266H100.187L102.691 4.23652L102.695 9.96054ZM3.48766 0.774556H0.264038V10.138H9.17181V7.64523H3.48766V0.774556ZM15.6785 0.561556C11.5637 0.561556 9.39975 2.51761 9.39975 5.38956C9.39975 8.63426 11.6713 10.28 15.6785 10.28C20.0899 10.28 21.9452 8.37156 21.9452 5.38956C21.9452 2.36141 19.8521 0.560134 15.6785 0.560134V0.561556ZM15.6665 2.99473C15.9466 2.99345 16.2265 3.00978 16.5046 3.04372L12.9008 6.65833C12.7303 6.27145 12.6471 5.85148 12.6573 5.42861C12.6573 3.95962 13.3949 2.99331 15.6665 2.99331V2.99473ZM15.6785 7.88521C15.4086 7.88641 15.1389 7.87122 14.8708 7.83977L18.4809 4.21876C18.6451 4.59925 18.7237 5.01134 18.711 5.42577C18.711 6.855 18.0315 7.88379 15.6785 7.88379V7.88521ZM28.3323 6.60721H31.6501C31.6012 6.83817 31.4994 7.05451 31.3528 7.23911C30.6649 7.80114 29.7871 8.07463 28.9028 8.00236C28.4577 8.05014 28.0077 8.00136 27.583 7.85936C27.1583 7.71743 26.7691 7.48555 26.4416 7.17947C26.1061 6.68595 25.9468 6.09324 25.9893 5.49748C25.935 4.87324 26.1083 4.25036 26.477 3.74449C26.9406 3.21908 27.7257 2.9926 28.8795 2.9926C29.6136 2.93161 30.3468 3.12075 30.9606 3.52936C31.1541 3.6835 31.2987 3.89067 31.3768 4.12575H34.4539C34.4316 3.73845 34.3387 3.35846 34.18 3.00467C33.4431 1.5016 31.7301 0.606996 28.8172 0.606996C26.2837 0.606996 24.5835 1.38231 23.6441 2.55168C23.0237 3.39616 22.7053 4.42566 22.7402 5.47405C22.7 6.54615 23.0102 7.60199 23.6236 8.4809C24.5516 9.6879 26.2045 10.2815 28.1907 10.2815C29.5113 10.3738 30.8228 10.0029 31.9007 9.23208L31.9842 10.138H34.5403V4.59152H28.3323V6.60721ZM41.7952 0.559425C37.6811 0.559425 35.5164 2.51547 35.5164 5.38742C35.5164 8.63212 37.7873 10.2779 41.7952 10.2779C46.2073 10.2779 48.0626 8.36942 48.0626 5.38742C48.0626 2.3614 45.9695 0.560134 41.7952 0.560134V0.559425ZM41.7839 2.9926C42.0566 2.99182 42.3291 3.00743 42.6 3.03945L39.0105 6.642C38.8452 6.25945 38.7648 5.84545 38.7747 5.42861C38.7719 3.95962 39.5123 2.99331 41.7839 2.99331V2.9926ZM41.7952 7.88308C41.5181 7.88428 41.2413 7.86817 40.9663 7.8348L44.5884 4.20102C44.7588 4.58655 44.8404 5.00566 44.827 5.42718C44.8284 6.85499 44.1517 7.88379 41.7952 7.88379V7.88308Z" fill="#080829"/>
</svg>
